<svg xmlns="http://www.w3.org/2000/svg" width="1050" height="624" viewBox="0 0 1050 624" version="1.1"><path d="M -0 312.001 L -0 624.002 525.250 623.751 L 1050.500 623.500 1050.752 311.750 L 1051.003 -0 525.502 -0 L 0 0 -0 312.001 M 0.494 312.500 C 0.494 484.100, 0.609 554.151, 0.750 468.169 C 0.891 382.187, 0.891 241.787, 0.750 156.169 C 0.609 70.551, 0.494 140.900, 0.494 312.500 M 2 312 L 2 622 525 622 L 1048 622 1048 312 L 1048 2 525 2 L 2 2 2 312 M 719 308.500 L 719 369 726.912 369 L 734.824 369 735.500 365 C 735.872 362.800, 736.409 361, 736.694 361 C 736.979 361, 738.107 362.138, 739.201 363.528 C 744.234 369.927, 755.697 372.027, 762.087 367.720 C 769.977 362.403, 772.003 353.852, 771.992 325.918 C 771.979 291.104, 768.720 283, 754.735 283 C 748.836 283, 743.661 285.631, 739.286 290.856 L 737.072 293.500 737.036 270.750 L 737 248 728 248 L 719 248 719 308.500 M 434.504 254.250 C 434.746 254.938, 439.682 272.507, 445.472 293.294 L 456 331.088 456 350.044 L 456 369 465 369 L 474 369 474 350.844 L 474 332.687 485 293.545 C 491.050 272.016, 496 254.087, 496 253.701 C 496 253.316, 491.980 253, 487.067 253 C 479.420 253, 478.062 253.252, 477.627 254.750 C 476.859 257.397, 469.368 292.291, 467.429 302.250 C 466.493 307.063, 465.397 311, 464.995 311 C 464.593 311, 464.022 309.197, 463.726 306.994 C 463.431 304.791, 460.818 291.741, 457.919 277.994 L 452.650 253 443.356 253 C 436.353 253, 434.171 253.308, 434.504 254.250 M 604 259.962 L 604 266.925 613.250 267.212 L 622.500 267.500 622.759 318.250 L 623.018 369 632.009 369 L 641 369 641 318 L 641 267 650.500 267 L 660 267 660 260 L 660 253 632 253 L 604 253 604 259.962 M 508.500 284.160 C 497.727 288.092, 493.611 296.629, 492.429 317.494 C 491.699 330.371, 493.227 349.522, 495.511 356.140 C 497.587 362.152, 502.918 367.437, 508.477 368.994 C 514.907 370.794, 527.599 369.954, 532.500 367.403 C 538.050 364.515, 541.723 358.865, 543.488 350.500 C 545.203 342.374, 545.526 314.781, 544.014 305.551 C 542.600 296.913, 538.631 289.446, 533.728 286.199 C 530.143 283.825, 528.560 283.474, 520.576 283.283 C 515.584 283.163, 510.150 283.558, 508.500 284.160 M 797.239 284.335 C 791.477 286.425, 787.301 290.603, 784.853 296.729 C 782.682 302.162, 782.545 303.846, 782.523 325.500 C 782.504 345.040, 782.776 349.396, 784.338 354.455 C 786.544 361.607, 791.723 367.275, 797.523 368.885 C 803.198 370.460, 813.017 370.258, 818.110 368.461 C 826.367 365.548, 830.227 360.161, 831.518 349.750 L 832.230 344 823.615 344 L 815 344 814.985 347.750 C 814.956 355.218, 810.039 359.706, 804.601 357.228 C 801.401 355.770, 800.013 350.792, 800.006 340.750 L 800 333 816 333 L 832 333 832 319.947 C 832 302.955, 830.118 294.244, 825.295 288.905 C 823.287 286.682, 820.252 284.609, 818.152 284.025 C 813.302 282.678, 801.317 282.856, 797.239 284.335 M 556.194 321.250 C 556.494 357.720, 556.547 358.589, 558.760 362.729 C 561.530 367.915, 565.323 370, 571.982 370 C 578.736 370, 582.883 368.122, 587.157 363.130 C 589.101 360.859, 590.928 359, 591.217 359 C 591.506 359, 592.041 361.250, 592.406 364 L 593.069 369 600.534 369 L 608 369 608 326.500 L 608 284 598.513 284 L 589.026 284 588.763 318.642 L 588.500 353.285 585.844 355.267 C 582.526 357.744, 578.074 357.822, 576.328 355.434 C 575.284 354.006, 575 346.168, 575 318.809 L 575 284 565.444 284 L 555.888 284 556.194 321.250 M 655.194 320.750 C 655.496 357.012, 655.531 357.563, 657.852 362.277 C 660.687 368.034, 664.068 370, 671.135 370 C 677.843 370, 684.249 366.952, 687.044 362.429 C 688.209 360.543, 689.534 359, 689.988 359 C 690.441 359, 691.122 361.250, 691.500 364 L 692.188 369 699.594 369 L 707 369 707 326.500 L 707 284 697.500 284 L 688 284 688 318.326 L 688 352.651 685.618 354.889 C 682.994 357.355, 677.615 358.014, 675.704 356.105 C 674.822 355.224, 674.423 345.418, 674.214 319.451 L 673.927 284 664.407 284 L 654.887 284 655.194 320.750 M 515.025 296.975 C 511.857 300.143, 511.500 303.231, 511.500 327.500 C 511.500 351.571, 512.002 354.765, 516.197 357.369 C 519.079 359.159, 523.326 356.964, 524.694 352.979 C 526.213 348.551, 526.422 306.059, 524.951 300.762 C 523.371 295.073, 518.707 293.293, 515.025 296.975 M 802.273 297.701 C 800.921 299.761, 800.420 302.968, 800.162 311.201 L 799.823 322 807.412 322 L 815 322 814.967 316.750 C 814.907 307.039, 813.263 297.666, 811.380 296.288 C 808.345 294.069, 804.239 294.707, 802.273 297.701 M 739.969 298.531 L 737.500 301.157 737.203 326.969 L 736.907 352.781 739.650 354.939 C 743.232 357.757, 747.682 357.334, 750.207 353.936 C 753.086 350.062, 754.290 338.522, 753.718 320.296 C 753.104 300.742, 751.802 296.694, 745.969 296.203 C 743.220 295.971, 741.891 296.487, 739.969 298.531" stroke="none" fill="#282828" fill-rule="evenodd"/><path d="M 2 312 L 2 622 525 622 L 1048 622 1048 312 L 1048 2 525 2 L 2 2 2 312 M 266.500 243.994 C 252.295 244.890, 240.647 246.423, 236.730 247.913 C 232.856 249.385, 227.096 254.891, 224.875 259.244 C 220.620 267.586, 219.530 278.279, 219.547 311.500 C 219.565 346.138, 220.789 357.061, 225.440 364.089 C 228.213 368.280, 233.090 372.323, 237.301 373.924 C 252.070 379.540, 357.032 380.730, 388.163 375.635 C 397.027 374.185, 402.672 370.964, 406.506 365.170 C 411.858 357.084, 414.535 333.266, 413.664 301.500 C 412.810 270.329, 410.244 258.756, 402.794 252.474 C 394.166 245.199, 383.817 244.003, 325.500 243.539 C 300.200 243.338, 273.650 243.543, 266.500 243.994 M 719 309 L 719 370 726.521 370 C 734.559 370, 734.379 370.115, 736.405 363.703 C 736.900 362.138, 737.410 362.344, 740.372 365.306 C 747.704 372.637, 761.232 372.104, 766.809 364.265 C 770.921 358.486, 772.190 351.446, 772.734 331.408 C 773.687 296.277, 769.789 283.989, 757.155 282.294 C 751.448 281.529, 744.989 284.163, 740.564 289.061 L 737 293.006 737 270.503 L 737 248 728 248 L 719 248 719 309 M 434 252.885 C 434 253.372, 438.586 269.909, 444.190 289.635 L 454.380 325.500 454.940 347.500 L 455.500 369.500 465 369.500 L 474.500 369.500 474.772 350.194 L 475.044 330.888 486.022 291.968 C 492.060 270.562, 497 252.795, 497 252.487 C 497 252.180, 492.622 252.056, 487.271 252.214 L 477.543 252.500 475.187 263 C 473.891 268.775, 471.123 281.600, 469.036 291.500 C 466.949 301.400, 465.013 308.825, 464.735 308 C 464.456 307.175, 461.889 295.250, 459.028 281.500 C 456.168 267.750, 453.593 255.488, 453.306 254.250 C 452.810 252.113, 452.310 252, 443.392 252 C 438.226 252, 434 252.398, 434 252.885 M 603 259.985 L 603 268 612.500 268 L 622 268 622 319 L 622 370 631.500 370 L 641 370 641 319 L 641 268 651.042 268 L 661.084 268 660.792 260.250 L 660.500 252.500 631.750 252.235 L 603 251.969 603 259.985 M 297 310.975 L 297 340.116 302.776 336.808 C 305.953 334.989, 317.198 328.550, 327.766 322.500 C 338.334 316.450, 346.984 311.217, 346.990 310.871 C 346.998 310.347, 300.522 283.189, 297.866 282.167 C 297.390 281.983, 297 294.947, 297 310.975 M 510.502 283.136 C 501.231 285.306, 495.231 292.933, 492.910 305.500 C 491.205 314.728, 492.254 348.069, 494.466 354.992 C 497.047 363.068, 502.726 368.390, 510.479 369.997 C 522.584 372.507, 534.910 369.115, 539.636 361.974 C 544.174 355.116, 545.306 348.295, 545.357 327.500 C 545.417 303.022, 543.807 295.747, 536.665 288.223 C 531.518 282.799, 520.826 280.721, 510.502 283.136 M 798.951 283.434 C 790.007 285.903, 785.584 291.007, 782.862 302 C 780.710 310.692, 781.039 344.765, 783.350 352.500 C 787.366 365.943, 793.417 370.427, 807.500 370.400 C 823.318 370.370, 831.975 362.591, 831.994 348.389 L 832 344.279 826.750 343.648 C 823.862 343.301, 820.096 343.013, 818.380 343.009 C 815.424 343, 815.234 343.236, 814.755 347.486 C 814.019 354.014, 811.742 357, 807.500 357 C 802.621 357, 801.354 354.401, 800.551 342.750 L 799.879 333 816.440 333 L 833 333 832.992 324.750 C 832.982 314.948, 831.388 299.836, 829.871 295.164 C 826.406 284.490, 813.231 279.493, 798.951 283.434 M 555.176 320.250 C 555.520 354.526, 555.654 356.745, 557.634 361 C 560.489 367.133, 563.744 369.866, 569.067 370.596 C 575.981 371.543, 581.842 369.489, 586.731 364.404 L 590.963 360.004 591.544 362.752 C 591.864 364.263, 592.331 366.512, 592.582 367.750 C 593.006 369.842, 593.563 370, 600.519 370 L 608 370 608 327 L 608 284 598 284 L 588 284 588 318.427 L 588 352.855 585.365 354.927 C 581.942 357.620, 578.507 357.561, 576.557 354.777 C 575.221 352.871, 575 347.683, 575 318.277 L 575 284 564.906 284 L 554.812 284 555.176 320.250 M 655.205 321.750 C 655.484 357.408, 655.611 359.688, 657.500 362.895 C 663.465 373.023, 676.777 373.716, 685.768 364.366 C 690.244 359.711, 690.389 359.759, 691.467 366.250 L 692.091 370 699.545 370 L 707 370 707 327 L 707 284 697.500 284 L 688 284 688 317.813 L 688 351.626 685.114 354.390 C 683.052 356.367, 681.419 357.062, 679.388 356.827 C 674.253 356.236, 674.031 354.623, 674.015 317.750 L 674 284 664.455 284 L 654.910 284 655.205 321.750 M 803.517 297.392 C 801.591 299.318, 801 300.941, 801 304.308 C 801 306.727, 800.711 311.473, 800.358 314.853 L 799.715 321 806.968 321 L 814.221 321 813.845 310.021 C 813.450 298.468, 812.854 296.920, 808.267 295.545 C 806.633 295.056, 805.357 295.552, 803.517 297.392 M 514.273 298.703 C 512.730 301.054, 512.459 304.420, 512.184 324.602 C 511.833 350.404, 512.527 355.592, 516.457 356.578 C 524.655 358.636, 525.500 355.776, 525.500 325.955 C 525.500 304.141, 525.303 301.109, 523.727 298.705 C 521.285 294.980, 516.716 294.979, 514.273 298.703 M 741.299 298.250 C 740.172 299.488, 738.744 301.483, 738.125 302.684 C 736.687 305.475, 736.569 350.326, 737.992 352.986 C 739.176 355.197, 745.004 357.320, 747.384 356.406 C 748.314 356.049, 749.840 354.350, 750.777 352.629 C 752.190 350.034, 752.540 345.937, 752.829 328.632 C 753.193 306.846, 752.369 299.765, 749.189 297.348 C 746.627 295.400, 743.578 295.749, 741.299 298.250" stroke="none" fill="#ffffff" fill-rule="evenodd"/><path d="M 266.500 243.994 C 252.295 244.890, 240.647 246.423, 236.730 247.913 C 232.856 249.385, 227.096 254.891, 224.875 259.244 C 220.620 267.586, 219.530 278.279, 219.547 311.500 C 219.565 346.138, 220.789 357.061, 225.440 364.089 C 228.213 368.280, 233.090 372.323, 237.301 373.924 C 252.070 379.540, 357.032 380.730, 388.163 375.635 C 397.027 374.185, 402.672 370.964, 406.506 365.170 C 411.858 357.084, 414.535 333.266, 413.664 301.500 C 412.810 270.329, 410.244 258.756, 402.794 252.474 C 394.166 245.199, 383.817 244.003, 325.500 243.539 C 300.200 243.338, 273.650 243.543, 266.500 243.994 M 297 310.975 L 297 340.116 302.776 336.808 C 305.953 334.989, 317.198 328.550, 327.766 322.500 C 338.334 316.450, 346.984 311.217, 346.990 310.871 C 346.998 310.347, 300.522 283.189, 297.866 282.167 C 297.390 281.983, 297 294.947, 297 310.975" stroke="none" fill="#ea3223" fill-rule="evenodd"/><path d="M 438.784 252.738 C 441.689 252.941, 446.189 252.939, 448.784 252.734 C 451.378 252.528, 449 252.363, 443.500 252.365 C 438 252.368, 435.878 252.536, 438.784 252.738 M 477.459 253.067 C 477.096 253.653, 477.070 254.403, 477.400 254.733 C 477.730 255.063, 478 254.808, 478 254.167 C 478 252.473, 495.653 252.553, 496.338 254.250 C 496.639 254.997, 496.874 254.795, 496.921 253.750 C 496.991 252.201, 495.914 252, 487.559 252 C 481.951 252, 477.850 252.433, 477.459 253.067 M 603 259.985 L 603 268 612.500 268 L 622 268 622 319 L 622 370 631.750 369.792 L 641.500 369.585 632.259 369.255 L 623.018 368.925 622.759 318.213 L 622.500 267.500 613.250 267.212 L 604 266.925 604 259.962 L 604 253 632 253 L 660 253 660 259.964 L 660 266.928 650.250 267.254 L 640.500 267.581 650.792 267.791 L 661.084 268 660.792 260.250 L 660.500 252.500 631.750 252.235 L 603 251.969 603 259.985 M 516.768 282.725 C 518.565 282.947, 521.265 282.943, 522.768 282.715 C 524.271 282.486, 522.800 282.304, 519.500 282.310 C 516.200 282.315, 514.971 282.502, 516.768 282.725 M 805.768 282.725 C 807.565 282.947, 810.265 282.943, 811.768 282.715 C 813.271 282.486, 811.800 282.304, 808.500 282.310 C 805.200 282.315, 803.971 282.502, 805.768 282.725 M 555.448 316.500 C 555.447 334.650, 555.582 342.216, 555.748 333.314 C 555.913 324.411, 555.914 309.561, 555.749 300.314 C 555.583 291.066, 555.448 298.350, 555.448 316.500 M 588.236 317.921 C 588.025 348.726, 587.820 352.561, 586.287 354.421 L 584.574 356.500 586.800 354.459 L 589.027 352.418 588.750 317.959 L 588.473 283.500 588.236 317.921 M 800.310 307.500 C 800.315 310.800, 800.502 312.029, 800.725 310.232 C 800.947 308.435, 800.943 305.735, 800.715 304.232 C 800.486 302.729, 800.304 304.200, 800.310 307.500 M 772.417 325.500 C 772.418 335.950, 772.566 340.089, 772.746 334.698 C 772.926 329.307, 772.925 320.757, 772.744 315.698 C 772.563 310.639, 772.416 315.050, 772.417 325.500 M 511.419 327 C 511.419 337.725, 511.566 342.113, 511.746 336.750 C 511.925 331.387, 511.925 322.613, 511.746 317.250 C 511.566 311.887, 511.419 316.275, 511.419 327 M 814 314.956 L 814 320.912 806.750 321.257 L 799.500 321.603 807.250 321.801 L 815 322 815 315.500 C 815 311.925, 814.775 309, 814.500 309 C 814.225 309, 814 311.680, 814 314.956 M 753.400 326.500 C 753.401 334.750, 753.556 337.992, 753.744 333.704 C 753.932 329.417, 753.931 322.667, 753.742 318.704 C 753.552 314.742, 753.399 318.250, 753.400 326.500 M 781.397 326 C 781.397 333.975, 781.553 337.238, 781.743 333.250 C 781.932 329.262, 781.932 322.738, 781.743 318.750 C 781.553 314.762, 781.397 318.025, 781.397 326 M 832.370 323 C 832.370 328.775, 832.535 331.137, 832.737 328.250 C 832.939 325.363, 832.939 320.637, 832.737 317.750 C 832.535 314.863, 832.370 317.225, 832.370 323 M 545.360 327 C 545.360 332.225, 545.529 334.363, 545.735 331.750 C 545.941 329.137, 545.941 324.863, 545.735 322.250 C 545.529 319.637, 545.360 321.775, 545.360 327 M 455.468 349.249 L 455.500 369.500 465 369.500 L 474.500 369.500 474.533 350.249 L 474.567 330.998 474.262 349.999 L 473.957 369 464.999 369 L 456.041 369 455.739 348.999 L 455.436 328.999 455.468 349.249 M 596.776 369.733 C 599.128 369.945, 602.728 369.942, 604.776 369.727 C 606.824 369.512, 604.900 369.339, 600.500 369.343 C 596.100 369.346, 594.424 369.522, 596.776 369.733 M 695.776 369.733 C 698.128 369.945, 701.728 369.942, 703.776 369.727 C 705.824 369.512, 703.900 369.339, 699.500 369.343 C 695.100 369.346, 693.424 369.522, 695.776 369.733 M 722.776 369.733 C 725.128 369.945, 728.728 369.942, 730.776 369.727 C 732.824 369.512, 730.900 369.339, 726.500 369.343 C 722.100 369.346, 720.424 369.522, 722.776 369.733 M 515.768 370.725 C 517.565 370.947, 520.265 370.943, 521.768 370.715 C 523.271 370.486, 521.800 370.304, 518.500 370.310 C 515.200 370.315, 513.971 370.502, 515.768 370.725" stroke="none" fill="#8c3028" fill-rule="evenodd"/></svg>